<?xml version="1.0" encoding="UTF-8" standalone="no"?>
<!-- Generator: Adobe Illustrator 16.0.0, SVG Export Plug-In . SVG Version: 6.00 Build 0)  -->

<svg
   xmlns:dc="http://purl.org/dc/elements/1.1/"
   xmlns:cc="http://creativecommons.org/ns#"
   xmlns:rdf="http://www.w3.org/1999/02/22-rdf-syntax-ns#"
   xmlns:svg="http://www.w3.org/2000/svg"
   xmlns="http://www.w3.org/2000/svg"
   xmlns:sodipodi="http://sodipodi.sourceforge.net/DTD/sodipodi-0.dtd"
   xmlns:inkscape="http://www.inkscape.org/namespaces/inkscape"
   version="1.1"
   id="Capa_1"
   x="0px"
   y="0px"
   width="21.769579"
   height="30.000008"
   viewBox="0 0 21.76958 30.000009"
   xml:space="preserve"
   inkscape:version="0.48.4 r9939"
   sodipodi:docname="icon-tel.svg"><metadata
   id="metadata41"><rdf:RDF><cc:Work
       rdf:about=""><dc:format>image/svg+xml</dc:format><dc:type
         rdf:resource="http://purl.org/dc/dcmitype/StillImage" /></cc:Work></rdf:RDF></metadata><defs
   id="defs39" /><sodipodi:namedview
   pagecolor="#ffffff"
   bordercolor="#666666"
   borderopacity="1"
   objecttolerance="10"
   gridtolerance="10"
   guidetolerance="10"
   inkscape:pageopacity="0"
   inkscape:pageshadow="2"
   inkscape:window-width="1920"
   inkscape:window-height="1017"
   id="namedview37"
   showgrid="false"
   fit-margin-top="0"
   fit-margin-left="0"
   fit-margin-right="0"
   fit-margin-bottom="0"
   inkscape:zoom="6.6419119"
   inkscape:cx="48.284092"
   inkscape:cy="26.829786"
   inkscape:window-x="-8"
   inkscape:window-y="-8"
   inkscape:window-maximized="1"
   inkscape:current-layer="g3" />
<g
   id="g3"
   transform="translate(18.874453,-392.57383)">
	<path
   d="m 2.8917238,418.34412 c -0.0091,-0.23804 -0.3748251,-0.69091 -1.0971102,-1.35773 -0.1902455,-0.19934 -0.4638783,-0.47459 -0.81926435,-0.82619 -0.3557661,-0.35172 -0.67777399,-0.67413 -0.96537891,-0.96684 -0.28832084,-0.29285 -0.55664761,-0.57337 -0.80562434,-0.84148 -0.0376704,-0.0503 -0.15789144,-0.19929 -0.360388,-0.44808 -0.2028956,-0.24835 -0.3791202,-0.44013 -0.5298336,-0.57557 -0.1504784,-0.13481 -0.3102199,-0.22704 -0.4791335,-0.27603 -0.2412326,-0.07 -0.5924406,0.0147 -1.0538751,0.25334 -0.4615613,0.23912 -0.9018106,0.51658 -1.3205688,0.83366 -0.4187662,0.31687 -0.8469085,0.59784 -1.2840767,0.84383 -0.4377123,0.24596 -0.7652233,0.33726 -0.982118,0.27436 -0.1088903,-0.0316 -0.2358506,-0.10136 -0.3811821,-0.2084 -0.1451584,-0.10744 -0.2538998,-0.19498 -0.3267549,-0.26125 -0.071841,-0.0669 -0.1918756,-0.193 -0.3602521,-0.37961 -0.1688675,-0.18633 -0.2630809,-0.28889 -0.2836556,-0.30798 -1.3867282,-1.39639 -2.4997486,-2.85707 -3.3393826,-4.38187 -0.839052,-1.52539 -1.477757,-3.24712 -1.915225,-5.16589 -0.005,-0.0276 -0.04132,-0.16247 -0.108445,-0.40415 -0.06726,-0.24193 -0.109824,-0.41101 -0.127478,-0.50793 -0.01775,-0.0967 -0.03314,-0.2352 -0.04614,-0.41549 -0.01298,-0.18029 -0.0039,-0.3247 0.02764,-0.43341 0.06294,-0.21702 0.315407,-0.44476 0.757231,-0.68286 0.441705,-0.23794 0.908541,-0.44928 1.399945,-0.6335 0.491722,-0.18412 0.96167,-0.40761 1.410506,-0.66966 0.4487625,-0.26227 0.7080797,-0.51387 0.7780404,-0.7551 0.048954,-0.1688 0.056636,-0.35312 0.023004,-0.55245 -0.0336,-0.19974 -0.1012566,-0.45121 -0.2027484,-0.75542 -0.101593,-0.30411 -0.1634285,-0.48538 -0.1856221,-0.54438 -0.093364,-0.35381 -0.1865681,-0.73065 -0.2801008,-1.13055 -0.093547,-0.39984 -0.1933521,-0.84421 -0.3002281,-1.33291 -0.106747,-0.48845 -0.193072,-0.86674 -0.259452,-1.13446 -0.177139,-0.96671 -0.363765,-1.51803 -0.560058,-1.65315 -0.07399,-0.0608 -0.195463,-0.11572 -0.364187,-0.16466 -0.325912,-0.0945 -0.768543,-0.1576 -1.328322,-0.18898 -0.559913,-0.0316 -1.009665,-0.0248 -1.349849,0.0205 -0.676645,0.0783 -1.529393,0.62872 -2.558363,1.65105 -0.944064,0.95535 -1.577106,1.98833 -1.898951,3.0981 -0.09439,0.32545 -0.165119,0.64824 -0.212205,0.9684 -0.04699,0.31983 -0.07217,0.68861 -0.07545,1.10625 -0.0034,0.41746 9.4e-4,0.72959 0.01297,0.93551 0.01205,0.20606 0.03864,0.57664 0.07966,1.11185 0.04081,0.53503 0.06383,0.86198 0.06853,0.98105 0.0793,1.30478 0.273845,2.50547 0.583422,3.60239 0.504823,1.8204 1.342062,3.7932 2.511142,5.91756 1.169181,2.12425 2.387633,3.88692 3.655495,5.28778 0.760968,0.84833 1.671676,1.65514 2.7312877,2.42048 0.098197,0.0675 0.3621713,0.26164 0.791966,0.58294 0.4301318,0.32086 0.7291177,0.54161 0.8967231,0.66216 0.1676506,0.12064 0.4290523,0.29142 0.7832094,0.51196 0.3549809,0.2208 0.6796809,0.39674 0.9749418,0.52846 0.2957079,0.13092 0.6061978,0.24426 0.9317297,0.33866 1.1096983,0.32183 2.3212079,0.33951 3.6335937,0.0531 1.41402015,-0.32211 2.3351519,-0.74823 2.7635591,-1.2784 0.2206157,-0.26269 0.4666404,-0.63928 0.7394942,-1.12923 0.2731608,-0.48959 0.4565324,-0.89728 0.5510336,-1.22312 0.04951,-0.16932 0.06799,-0.30103 0.05632,-0.39677 z"
   id="path5"
   inkscape:connector-curvature="0"
   style="fill:#1a1a1a;fill-opacity:1" />
</g>
<g
   id="g7"
   transform="translate(18.874453,-392.57383)">
</g>
<g
   id="g9"
   transform="translate(18.874453,-392.57383)">
</g>
<g
   id="g11"
   transform="translate(18.874453,-392.57383)">
</g>
<g
   id="g13"
   transform="translate(18.874453,-392.57383)">
</g>
<g
   id="g15"
   transform="translate(18.874453,-392.57383)">
</g>
<g
   id="g17"
   transform="translate(18.874453,-392.57383)">
</g>
<g
   id="g19"
   transform="translate(18.874453,-392.57383)">
</g>
<g
   id="g21"
   transform="translate(18.874453,-392.57383)">
</g>
<g
   id="g23"
   transform="translate(18.874453,-392.57383)">
</g>
<g
   id="g25"
   transform="translate(18.874453,-392.57383)">
</g>
<g
   id="g27"
   transform="translate(18.874453,-392.57383)">
</g>
<g
   id="g29"
   transform="translate(18.874453,-392.57383)">
</g>
<g
   id="g31"
   transform="translate(18.874453,-392.57383)">
</g>
<g
   id="g33"
   transform="translate(18.874453,-392.57383)">
</g>
<g
   id="g35"
   transform="translate(18.874453,-392.57383)">
</g>
</svg>